<?xml version="1.0" standalone="no"?><!DOCTYPE svg PUBLIC "-//W3C//DTD SVG 1.1//EN" "http://www.w3.org/Graphics/SVG/1.1/DTD/svg11.dtd"><svg t="1652447482439" class="icon" viewBox="0 0 1024 1024" version="1.1" xmlns="http://www.w3.org/2000/svg" p-id="7215" xmlns:xlink="http://www.w3.org/1999/xlink" width="200" height="200"><defs><style type="text/css">@font-face { font-family: feedback-iconfont; src: url("//at.alicdn.com/t/font_1031158_u69w8yhxdu.woff2?t=1630033759944") format("woff2"), url("//at.alicdn.com/t/font_1031158_u69w8yhxdu.woff?t=1630033759944") format("woff"), url("//at.alicdn.com/t/font_1031158_u69w8yhxdu.ttf?t=1630033759944") format("truetype"); }
</style></defs><path d="M585.1648 905.1648c-19.8144 0-35.84-16.0256-35.84-35.84v-283.392c0-19.8144 16.0256-35.84 35.84-35.84s35.84 16.0256 35.84 35.84v283.392c0 19.7632-16.0768 35.84-35.84 35.84zM728.9344 905.1648c-19.8144 0-35.84-16.0256-35.84-35.84v-283.392c0-19.8144 16.0256-35.84 35.84-35.84s35.84 16.0256 35.84 35.84v283.392c0 19.7632-16.0768 35.84-35.84 35.84zM875.7248 905.1648c-19.8144 0-35.84-16.0256-35.84-35.84v-283.392c0-19.8144 16.0256-35.84 35.84-35.84s35.84 16.0256 35.84 35.84v283.392c0 19.7632-16.0768 35.84-35.84 35.84z" fill="#FEC963" p-id="7216"></path><path d="M234.4448 481.1776h174.7456c35.328 0 64-28.672 64-64v-175.104c0-35.328-28.672-64-64-64H221.5424c-28.2112 0-51.0976 22.8864-51.0976 51.0976v188.0576c0.0512 35.328 28.672 63.9488 64 63.9488zM860.16 178.0736h-187.648c-28.2112 0-51.0976 22.8864-51.0976 51.0976v188.0576c0 35.328 28.672 64 64 64H860.16c35.328 0 64-28.672 64-64v-175.104c0-35.3792-28.672-64.0512-64-64.0512zM410.9824 619.1104H223.3344c-28.2112 0-51.0976 22.8864-51.0976 51.0976v188.0576c0 35.328 28.672 64 64 64h174.7456c35.328 0 64-28.672 64-64v-175.104c0-35.4304-28.672-64.0512-64-64.0512z" fill="#9bc6fc" p-id="7217"></path><path d="M390.3488 105.0624h-224.768c-38.8096 0-70.4 31.5904-70.4 70.4v224.768c0 38.8096 31.5904 70.4 70.4 70.4h224.768c38.8096 0 70.4-31.5904 70.4-70.4v-224.768c0.0512-38.8608-31.5392-70.4-70.4-70.4zM414.72 400.2304c0 13.4144-10.9056 24.32-24.32 24.32h-224.768c-13.4144 0-24.32-10.9056-24.32-24.32v-224.768c0-13.4144 10.9056-24.32 24.32-24.32h224.768c13.4144 0 24.32 10.9056 24.32 24.32v224.768zM390.3488 546.6112h-224.768c-38.8096 0-70.4 31.5904-70.4 70.4v224.768c0 38.8096 31.5904 70.4 70.4 70.4h224.768c38.8096 0 70.4-31.5904 70.4-70.4v-224.768c0.0512-38.8096-31.5392-70.4-70.4-70.4zM414.72 841.7792c0 13.4144-10.9056 24.32-24.32 24.32h-224.768c-13.4144 0-24.32-10.9056-24.32-24.32v-224.768c0-13.4144 10.9056-24.32 24.32-24.32h224.768c13.4144 0 24.32 10.9056 24.32 24.32v224.768zM841.6256 105.0624h-224.768c-38.8096 0-70.4 31.5904-70.4 70.4v224.768c0 38.8096 31.5904 70.4 70.4 70.4h224.768c38.8096 0 70.4-31.5904 70.4-70.4v-224.768c0-38.8608-31.5904-70.4-70.4-70.4z m24.32 295.168c0 13.4144-10.9056 24.32-24.32 24.32h-224.768c-13.4144 0-24.32-10.9056-24.32-24.32v-224.768c0-13.4144 10.9056-24.32 24.32-24.32h224.768c13.4144 0 24.32 10.9056 24.32 24.32v224.768zM571.4944 545.5872a23.04 23.04 0 0 0-23.04 23.04v317.3888c0 12.7488 10.2912 23.04 23.04 23.04s23.04-10.2912 23.04-23.04v-317.3888c0-12.7488-10.2912-23.04-23.04-23.04zM719.0528 545.5872a23.04 23.04 0 0 0-23.04 23.04v317.3888c0 12.7488 10.2912 23.04 23.04 23.04s23.04-10.2912 23.04-23.04v-317.3888a23.04 23.04 0 0 0-23.04-23.04zM866.56 545.5872a23.04 23.04 0 0 0-23.04 23.04v317.3888c0 12.7488 10.2912 23.04 23.04 23.04s23.04-10.2912 23.04-23.04v-317.3888c0-12.7488-10.2912-23.04-23.04-23.04z" fill="#474747" p-id="7218"></path></svg>