<?xml version="1.0" standalone="no"?><!DOCTYPE svg PUBLIC "-//W3C//DTD SVG 1.1//EN" "http://www.w3.org/Graphics/SVG/1.1/DTD/svg11.dtd"><svg t="1652447399324" class="icon" viewBox="0 0 1024 1024" version="1.1" xmlns="http://www.w3.org/2000/svg" p-id="4840" xmlns:xlink="http://www.w3.org/1999/xlink" width="200" height="200"><defs><style type="text/css">@font-face { font-family: feedback-iconfont; src: url("//at.alicdn.com/t/font_1031158_u69w8yhxdu.woff2?t=1630033759944") format("woff2"), url("//at.alicdn.com/t/font_1031158_u69w8yhxdu.woff?t=1630033759944") format("woff"), url("//at.alicdn.com/t/font_1031158_u69w8yhxdu.ttf?t=1630033759944") format("truetype"); }
</style></defs><path d="M395.776 773.12m-46.08 0a46.08 46.08 0 1 0 92.16 0 46.08 46.08 0 1 0-92.16 0Z" fill="#bfbfbf" p-id="4841"></path><path d="M733.696 773.12m-46.08 0a46.08 46.08 0 1 0 92.16 0 46.08 46.08 0 1 0-92.16 0Z" fill="#bfbfbf" p-id="4842"></path><path d="M742.912 326.144c-11.776 0-87.04-0.512-98.816-0.512H335.36c-4.096 0-13.312 0-16.896-1.536-4.096-4.608-9.728-55.808-10.752-60.416-1.536-10.24-4.096-20.48-8.192-30.208-3.072-8.192-10.24-14.336-18.432-16.384-4.096-1.024-8.704-2.048-12.8-3.072-7.168-1.536-13.824-3.072-20.992-4.608-3.584-0.512-6.656-1.536-10.24-2.048-3.072-0.512-6.656-1.536-9.728-2.56-2.048-0.512-3.072 0-5.12 0-1.536 0.512-3.584 1.536-5.12 2.048-2.56 1.536-4.608 3.072-6.144 5.12-2.56 3.584-4.608 7.168-5.632 11.776-1.024 4.096-1.024 8.704-0.512 12.8s2.048 7.68 4.608 10.752c2.56 3.072 5.632 5.12 9.216 6.144 21.504 5.632 37.376 9.728 40.448 10.752l36.864 330.24c0 38.912 41.472 70.656 91.648 70.656h306.176c50.688 0 91.648-31.744 91.648-70.656l30.72-198.144c11.776-64-13.824-69.12-73.216-70.144z" fill="#bfbfbf" p-id="4843"></path><path d="M694.784 464.896h-107.008c-12.8 0-23.04-10.24-23.04-23.04s10.24-23.04 23.04-23.04h107.008c12.8 0 23.04 10.24 23.04 23.04 0 12.288-10.24 23.04-23.04 23.04z" fill="#bfbfbf" p-id="4844"></path></svg>